<?xml version="1.0" encoding="utf-8"?>
<svg version="1.1" xmlns="http://www.w3.org/2000/svg" xmlns:xlink="http://www.w3.org/1999/xlink">
 <defs>
   <svg id="github" xmlns="http://www.w3.org/2000/svg" xmlns:xlink="http://www.w3.org/1999/xlink"
        x="0px" y="0px"
        viewBox="0 0 20 20" enable-background="new 0 0 20 20" xml:space="preserve">
              <path d="M13.18,11.309c-0.718,0-1.3,0.807-1.3,1.799c0,0.994,0.582,1.801,1.3,1.801s1.3-0.807,1.3-1.801
                C14.479,12.116,13.898,11.309,13.18,11.309z M17.706,6.626c0.149-0.365,0.155-2.439-0.635-4.426c0,0-1.811,0.199-4.551,2.08
                c-0.575-0.16-1.548-0.238-2.519-0.238c-0.973,0-1.945,0.078-2.52,0.238C4.74,2.399,2.929,2.2,2.929,2.2
                C2.14,4.187,2.148,6.261,2.295,6.626C1.367,7.634,0.8,8.845,0.8,10.497c0,7.186,5.963,7.301,7.467,7.301
                c0.342,0,1.018,0.002,1.734,0.002c0.715,0,1.392-0.002,1.732-0.002c1.506,0,7.467-0.115,7.467-7.301
                C19.2,8.845,18.634,7.634,17.706,6.626z M10.028,16.915H9.972c-3.771,0-6.709-0.449-6.709-4.115c0-0.879,0.31-1.693,1.047-2.369
                c1.227-1.127,3.305-0.531,5.662-0.531c0.01,0,0.02,0,0.029,0c0.01,0,0.018,0,0.027,0c2.357,0,4.436-0.596,5.664,0.531
                c0.735,0.676,1.045,1.49,1.045,2.369C16.737,16.466,13.8,16.915,10.028,16.915z M6.821,11.309c-0.718,0-1.3,0.807-1.3,1.799
                c0,0.994,0.582,1.801,1.3,1.801c0.719,0,1.301-0.807,1.301-1.801C8.122,12.116,7.54,11.309,6.821,11.309z"/>
   </svg>

   <svg version="1.1" id="twitter" xmlns="http://www.w3.org/2000/svg" xmlns:xlink="http://www.w3.org/1999/xlink"
        x="0px" y="0px"
        viewBox="0 0 20 20" enable-background="new 0 0 20 20" xml:space="preserve">
            <path d="M17.316,6.246c0.008,0.162,0.011,0.326,0.011,0.488c0,4.99-3.797,10.742-10.74,10.742c-2.133,0-4.116-0.625-5.787-1.697
              c0.296,0.035,0.596,0.053,0.9,0.053c1.77,0,3.397-0.604,4.688-1.615c-1.651-0.031-3.046-1.121-3.526-2.621
              c0.23,0.043,0.467,0.066,0.71,0.066c0.345,0,0.679-0.045,0.995-0.131c-1.727-0.348-3.028-1.873-3.028-3.703c0-0.016,0-0.031,0-0.047
              c0.509,0.283,1.092,0.453,1.71,0.473c-1.013-0.678-1.68-1.832-1.68-3.143c0-0.691,0.186-1.34,0.512-1.898
              C3.942,5.498,6.725,7,9.862,7.158C9.798,6.881,9.765,6.594,9.765,6.297c0-2.084,1.689-3.773,3.774-3.773
              c1.086,0,2.067,0.457,2.756,1.191c0.859-0.17,1.667-0.484,2.397-0.916c-0.282,0.881-0.881,1.621-1.66,2.088
              c0.764-0.092,1.49-0.293,2.168-0.594C18.694,5.051,18.054,5.715,17.316,6.246z"/>
   </svg>

   <svg version="1.1" id="linkedin" xmlns="http://www.w3.org/2000/svg" xmlns:xlink="http://www.w3.org/1999/xlink"
        x="0px" y="0px"
        viewBox="0 0 20 20" enable-background="new 0 0 20 20" xml:space="preserve">
            <path d="M5,3c0,1.1-0.7,2-2,2C1.8,5,1,4.1,1,3.1C1,2,1.8,1,3,1S5,1.9,5,3z M1,19h4V6H1V19z M14.6,6.2c-2.1,0-3.3,1.2-3.8,2h-0.1
              l-0.2-1.7H6.9C6.9,7.6,7,8.9,7,10.4V19h4v-7.1c0-0.4,0-0.7,0.1-1c0.3-0.7,0.8-1.6,1.9-1.6c1.4,0,2,1.2,2,2.8V19h4v-7.4
              C19,7.9,17.1,6.2,14.6,6.2z"/>
   </svg>

   <svg id="dev" viewBox="0 0 448 512">
     <path
       d="M120.12 208.29c-3.88-2.9-7.77-4.35-11.65-4.35H91.03v104.47h17.45c3.88 0 7.77-1.45 11.65-4.35 3.88-2.9 5.82-7.25 5.82-13.06v-69.65c-.01-5.8-1.96-10.16-5.83-13.06zM404.1 32H43.9C19.7 32 .06 51.59 0 75.8v360.4C.06 460.41 19.7 480 43.9 480h360.2c24.21 0 43.84-19.59 43.9-43.8V75.8c-.06-24.21-19.7-43.8-43.9-43.8zM154.2 291.19c0 18.81-11.61 47.31-48.36 47.25h-46.4V172.98h47.38c35.44 0 47.36 28.46 47.37 47.28l.01 70.93zm100.68-88.66H201.6v38.42h32.57v29.57H201.6v38.41h53.29v29.57h-62.18c-11.16.29-20.44-8.53-20.72-19.69V193.7c-.27-11.15 8.56-20.41 19.71-20.69h63.19l-.01 29.52zm103.64 115.29c-13.2 30.75-36.85 24.63-47.44 0l-38.53-144.8h32.57l29.71 113.72 29.57-113.72h32.58l-38.46 144.8z"/>
   </svg>
 </defs>
</svg>
