<?xml version="1.0" encoding="utf-8"?>
<svg version="1.1" xmlns="http://www.w3.org/2000/svg" xmlns:xlink="http://www.w3.org/1999/xlink">
 <defs>
   <svg id="github" viewBox="0 0 24 24" xmlns="http://www.w3.org/2000/svg">
     <path d="M12 .297c-6.63 0-12 5.373-12 12 0 5.303 3.438 9.8 8.205 11.385.6.113.82-.258.82-.577 0-.285-.01-1.04-.015-2.04-3.338.724-4.042-1.61-4.042-1.61C4.422 18.07 3.633 17.7 3.633 17.7c-1.087-.744.084-.729.084-.729 1.205.084 1.838 1.236 1.838 1.236 1.07 1.835 2.809 1.305 3.495.998.108-.776.417-1.305.76-1.605-2.665-.3-5.466-1.332-5.466-5.93 0-1.31.465-2.38 1.235-3.22-.135-.303-.54-1.523.105-3.176 0 0 1.005-.322 3.3 1.23.96-.267 1.98-.399 3-.405 1.02.006 2.04.138 3 .405 2.28-1.552 3.285-1.23 3.285-1.23.645 1.653.24 2.873.12 3.176.765.84 1.23 1.91 1.23 3.22 0 4.61-2.805 5.625-5.475 5.92.42.36.81 1.096.81 2.22 0 1.606-.015 2.896-.015 3.286 0 .315.21.69.825.57C20.565 22.092 24 17.592 24 12.297c0-6.627-5.373-12-12-12"/>
   </svg>

   <svg id="twitter" viewBox="0 0 24 24" xmlns="http://www.w3.org/2000/svg">
     <path d="M23.953 4.57a10 10 0 01-2.825.775 4.958 4.958 0 002.163-2.723c-.951.555-2.005.959-3.127 1.184a4.92 4.92 0 00-8.384 4.482C7.69 8.095 4.067 6.13 1.64 3.162a4.822 4.822 0 00-.666 2.475c0 1.71.87 3.213 2.188 4.096a4.904 4.904 0 01-2.228-.616v.06a4.923 4.923 0 003.946 4.827 4.996 4.996 0 01-2.212.085 4.936 4.936 0 004.604 3.417 9.867 9.867 0 01-6.102 2.105c-.39 0-.779-.023-1.17-.067a13.995 13.995 0 007.557 2.209c9.053 0 13.998-7.496 13.998-13.985 0-.21 0-.42-.015-.63A9.935 9.935 0 0024 4.59z"/>
   </svg>

   <svg id="dev" viewBox="0 0 448 512">
     <path
       d="M120.12 208.29c-3.88-2.9-7.77-4.35-11.65-4.35H91.03v104.47h17.45c3.88 0 7.77-1.45 11.65-4.35 3.88-2.9 5.82-7.25 5.82-13.06v-69.65c-.01-5.8-1.96-10.16-5.83-13.06zM404.1 32H43.9C19.7 32 .06 51.59 0 75.8v360.4C.06 460.41 19.7 480 43.9 480h360.2c24.21 0 43.84-19.59 43.9-43.8V75.8c-.06-24.21-19.7-43.8-43.9-43.8zM154.2 291.19c0 18.81-11.61 47.31-48.36 47.25h-46.4V172.98h47.38c35.44 0 47.36 28.46 47.37 47.28l.01 70.93zm100.68-88.66H201.6v38.42h32.57v29.57H201.6v38.41h53.29v29.57h-62.18c-11.16.29-20.44-8.53-20.72-19.69V193.7c-.27-11.15 8.56-20.41 19.71-20.69h63.19l-.01 29.52zm103.64 115.29c-13.2 30.75-36.85 24.63-47.44 0l-38.53-144.8h32.57l29.71 113.72 29.57-113.72h32.58l-38.46 144.8z"/>
   </svg>

   <svg id="speakerdeck" viewBox="0 0 24 24" xmlns="http://www.w3.org/2000/svg">
     <path d="M10.025 13.875H4.687a4.688 4.688 0 0 1 0-9.375h6.227a1.875 1.875 0 0 1 0 3.75H4.592a.937.937 0 1 0 0 1.875h5.337a4.687 4.687 0 1 1 0 9.375H1.875a1.875 1.875 0 0 1 0-3.75h8.15a.938.938 0 0 0 0-1.875zM13.97 19.5a5.635 5.635 0 0 0 2.396-3.75h3.026a.93.93 0 0 0 .921-.938V9.189a.93.93 0 0 0-.921-.938h-5.497c.438-.498.704-1.155.704-1.875s-.266-1.377-.704-1.875h6.418C22.35 4.5 24 6.179 24 8.25v7.5c0 2.071-1.65 3.75-3.687 3.75H13.97z"/>
   </svg>

   <svg id="linkedin" viewBox="0 0 24 24" xmlns="http://www.w3.org/2000/svg">
     <path d="M20.447 20.452h-3.554v-5.569c0-1.328-.027-3.037-1.852-3.037-1.853 0-2.136 1.445-2.136 2.939v5.667H9.351V9h3.414v1.561h.046c.477-.9 1.637-1.85 3.37-1.85 3.601 0 4.267 2.37 4.267 5.455v6.286zM5.337 7.433c-1.144 0-2.063-.926-2.063-2.065 0-1.138.92-2.063 2.063-2.063 1.14 0 2.064.925 2.064 2.063 0 1.139-.925 2.065-2.064 2.065zm1.782 13.019H3.555V9h3.564v11.452zM22.225 0H1.771C.792 0 0 .774 0 1.729v20.542C0 23.227.792 24 1.771 24h20.451C23.2 24 24 23.227 24 22.271V1.729C24 .774 23.2 0 22.222 0h.003z"/>
   </svg>

 </defs>
</svg>
